<?xml version="1.0" standalone="no"?>
<!DOCTYPE svg PUBLIC "-//W3C//DTD SVG 20010904//EN"
 "http://www.w3.org/TR/2001/REC-SVG-20010904/DTD/svg10.dtd">
<svg version="1.0" xmlns="http://www.w3.org/2000/svg"
 width="512.000000pt" height="512.000000pt" viewBox="0 0 512.000000 512.000000"
 preserveAspectRatio="xMidYMid meet">
<metadata>
Created by potrace 1.11, written by Peter Selinger 2001-2013
</metadata>
<g transform="translate(0.000000,512.000000) scale(0.100000,-0.100000)"
fill="#000000" stroke="none">
<path d="M2200 4295 l0 -65 -60 0 -60 0 0 -55 0 -55 -60 0 -60 0 0 -125 0
-125 -60 0 -60 0 0 -240 0 -240 -55 0 -55 0 0 -175 0 -175 55 0 55 0 0 -60 0
-60 60 0 60 0 0 -120 0 -120 -60 0 -60 0 0 -120 0 -120 -55 0 -55 0 0 -185 0
-185 -60 0 -60 0 0 -300 0 -300 60 0 60 0 0 -60 0 -60 55 0 55 0 0 -60 0 -60
120 0 120 0 0 -120 0 -120 -60 0 -60 0 0 -120 0 -120 360 0 360 0 0 -55 0 -55
185 0 185 0 0 55 0 55 60 0 60 0 0 300 0 300 60 0 60 0 0 60 0 60 60 0 60 0 0
60 0 60 60 0 60 0 0 240 0 240 -60 0 -60 0 0 185 0 185 -60 0 -60 0 0 120 0
120 -60 0 -60 0 0 60 0 60 -60 0 -60 0 0 60 0 60 60 0 60 0 0 60 0 60 60 0 60
0 0 175 0 175 -60 0 -60 0 0 240 0 240 -60 0 -60 0 0 125 0 125 -65 0 -65 0 0
55 0 55 -60 0 -60 0 0 65 0 65 -300 0 -300 0 0 -65z m720 -725 l0 -60 65 0 65
0 0 -60 0 -60 60 0 60 0 0 -175 0 -175 -60 0 -60 0 0 -60 0 -60 -65 0 -65 0 0
-60 0 -60 -60 0 -60 0 0 -60 0 -60 -60 0 -60 0 0 -60 0 -60 -60 0 -60 0 0 60
0 60 -60 0 -60 0 0 60 0 60 120 0 120 0 0 60 0 60 -120 0 -120 0 0 60 0 60
-60 0 -60 0 0 120 0 120 120 0 120 0 0 -60 0 -60 60 0 60 0 0 -60 0 -60 60 0
60 0 0 120 0 120 -60 0 -60 0 0 175 0 175 120 0 120 0 0 -60z m-720 -410 l0
-120 -60 0 -60 0 0 120 0 120 60 0 60 0 0 -120z m970 -600 l0 -120 60 0 60 0
0 -185 0 -185 60 0 60 0 0 -180 0 -180 -60 0 -60 0 0 -60 0 -60 -60 0 -60 0 0
60 0 60 -60 0 -60 0 0 60 0 60 -65 0 -65 0 0 60 0 60 65 0 65 0 0 245 0 245
-125 0 -125 0 0 -60 0 -60 -60 0 -60 0 0 -185 0 -185 -60 0 -60 0 0 -120 0
-120 60 0 60 0 0 -120 0 -120 -120 0 -120 0 0 60 0 60 -60 0 -60 0 0 240 0
240 -60 0 -60 0 0 125 0 125 60 0 60 0 0 -125 0 -125 60 0 60 0 0 65 0 65 60
0 60 0 0 60 0 60 60 0 60 0 0 60 0 60 60 0 60 0 0 60 0 60 60 0 60 0 0 60 0
60 125 0 125 0 0 -120z m-120 -1630 l0 -180 -65 0 -65 0 0 180 0 180 65 0 65
0 0 -180z"/>
<path d="M2800 3335 l0 -55 60 0 60 0 0 55 0 55 -60 0 -60 0 0 -55z"/>
</g>
</svg>
